<svg xmlns="http://www.w3.org/2000/svg" viewBox="0 0 1162 420"><rect width="1162" height="420" fill="#E9ECEF"/><g><defs><mask id="wfcut" maskUnits="userSpaceOnUse" x="-90" y="-90" width="600" height="600"><rect x="-90" y="-90" width="600" height="600" fill="#fff"/><path d="M210.9 222.4 L209.9 221.2 L208.1 219.2 L206.4 217.3 L204.7 215.3 L202.9 213.3 L201.2 211.3 L199.8 209.1 L198.8 206.7 L197.9 204.2 L197.0 201.7 L196.1 199.2 L195.2 196.8 L194.3 194.3" fill="none" stroke="#000" stroke-width="15.4" stroke-linecap="butt"/></mask></defs><path d="M199.8 209.1 L198.8 206.7 L197.9 204.2 L197.0 201.7 L196.1 199.2 L195.2 196.8 L194.3 194.3 L193.4 191.8 L192.5 189.3 L191.6 186.9 L190.7 184.4 L189.7 181.9 L188.8 179.5 L187.8 177.0 L186.8 174.6 L185.8 172.2 L184.8 169.7 L183.8 167.3 L182.8 164.9 L181.7 162.5 L180.6 160.1 L179.5 157.7 L178.4 155.3 L177.3 152.9 L176.1 150.5 L174.9 148.2 L173.7 145.9 L172.4 143.6 L171.1 141.3 L169.8 139.0 L168.5 136.7 L167.1 134.5 L165.6 132.3 L164.2 130.1 L162.6 128.0 L161.1 125.8 L159.5 123.8 L157.8 121.7 L156.1 119.7 L154.3 117.8 L152.5 115.9 L150.6 114.0 L148.6 112.3 L146.6 110.6 L144.5 109.0 L142.4 107.4 L140.2 106.0 L137.9 104.6 L135.6 103.4 L133.2 102.3 L130.8 101.3 L128.3 100.5 L125.7 99.8 L123.2 99.2 L120.6 98.8 L118.0 98.5 L115.3 98.4 L112.7 98.4 L110.1 98.6 L107.5 98.9 L104.9 99.4 L102.3 100.0 L99.8 100.7 L97.3 101.5 L94.8 102.5 L92.4 103.5 L90.0 104.7 L87.7 105.9 L85.4 107.3 L83.2 108.7 L81.0 110.2 L78.9 111.7 L76.8 113.3 L74.8 115.0 L72.8 116.7 L70.9 118.5 L69.0 120.3 L67.1 122.2 L65.3 124.1 L63.5 126.1 L61.8 128.1 L60.1 130.1 L58.5 132.1 L56.9 134.2 L55.3 136.3 L53.8 138.5 L52.3 140.7 L50.9 142.9 L49.4 145.1 L48.1 147.3 L46.7 149.6 L45.4 151.9 L44.1 154.2 L42.9 156.5 L41.7 158.8 L40.5 161.2 L39.4 163.6 L38.3 166.0 L37.2 168.4 L36.2 170.8 L35.1 173.2 L34.2 175.7 L33.2 178.1 L32.3 180.6 L31.4 183.1 L30.6 185.6 L29.8 188.1 L29.0 190.6 L28.2 193.1 L27.5 195.6 L26.8 198.2 L26.2 200.7 L25.6 203.3 L25.0 205.9 L24.4 208.4 L23.9 211.0 L23.4 213.6 L23.0 216.2 L22.5 218.8 L22.1 221.4 L21.8 224.0 L21.5 226.6 L21.2 229.3 L21.0 231.9 L20.8 234.5 L20.6 237.1 L20.5 239.8 L20.4 242.4 L20.4 245.0 L20.4 247.7 L20.5 250.3 L20.6 252.9 L20.7 255.6 L20.9 258.2 L21.2 260.8 L21.5 263.4 L21.8 266.0 L22.2 268.6 L22.7 271.2 L23.2 273.8 L23.8 276.4 L24.5 278.9 L25.2 281.5 L25.9 284.0 L26.8 286.5 L27.8 288.9 L28.8 291.4 L29.9 293.7 L31.1 296.1 L32.3 298.4 L33.7 300.6 L35.2 302.8 L36.7 304.9 L38.4 307.0 L40.2 308.9 L42.1 310.8 L44.0 312.5 L46.1 314.1 L48.3 315.6 L50.6 316.9 L53.0 318.1 L55.4 319.1 L57.9 319.9 L60.4 320.6 L63.0 321.1 L65.6 321.4 L68.3 321.6 L70.9 321.6 L73.5 321.5 L76.1 321.2 L78.7 320.8 L81.3 320.3 L83.9 319.7 L86.4 319.0 L88.9 318.1 L91.4 317.2 L93.8 316.2 L96.2 315.2 L98.6 314.0 L100.9 312.8 L103.2 311.5 L105.5 310.2 L107.8 308.8 L110.0 307.4 L112.2 306.0 L114.3 304.5 L116.5 302.9 L118.6 301.3 L120.7 299.7 L122.7 298.1 L124.8 296.4 L126.8 294.7 L128.8 293.0 L130.7 291.2 L132.7 289.5 L134.6 287.7 L136.5 285.9 L138.4 284.0 L140.3 282.2 L142.1 280.3 L144.0 278.4 L145.8 276.5 L147.6 274.6 L149.4 272.7 L151.2 270.7 L152.9 268.8 L154.7 266.8 L156.4 264.8 L158.2 262.9 L159.9 260.9 L161.6 258.9 L163.3 256.8 L165.0 254.8 L166.7 252.8 L168.3 250.8 L170.0 248.7 L171.7 246.7 L173.3 244.6 L174.9 242.6 L176.6 240.5 L178.2 238.4 L179.8 236.4 L181.5 234.3 L183.1 232.2 L184.7 230.1 L186.3 228.0 L187.9 225.9 L189.5 223.8 L191.1 221.8 L192.7 219.7 L194.3 217.6 L195.9 215.5 L197.5 213.4 L199.0 211.3 L200.6 209.2 L202.3 207.1 L203.9 205.0 L205.5 202.9 L207.1 200.9 L208.8 198.8 L210.4 196.7 L212.0 194.7 L213.7 192.6 L215.3 190.6 L217.0 188.5 L218.7 186.5 L220.4 184.5 L222.1 182.5 L223.8 180.5 L225.5 178.5 L227.3 176.5 L229.0 174.6 L230.8 172.6 L232.6 170.7 L234.4 168.8 L236.3 166.9 L238.1 165.1 L240.0 163.2 L241.9 161.4 L243.9 159.6 L245.8 157.9 L247.8 156.1 L249.8 154.4 L251.9 152.7 L253.9 151.1 L256.0 149.5 L258.1 147.9 L260.3 146.4 L262.5 144.9 L264.7 143.5 L266.9 142.1 L269.2 140.8 L271.5 139.5 L273.8 138.3 L276.2 137.1 L278.5 136.0 L281.0 134.9 L283.4 133.9 L285.9 133.0 L288.4 132.2 L290.9 131.4 L293.4 130.7 L296.0 130.1 L298.5 129.5 L301.1 129.0 L303.7 128.7 L306.4 128.4 L309.0 128.2 L311.6 128.1 L314.3 128.1 L316.9 128.2 L319.5 128.3 L322.1 128.6 L324.7 128.9 L327.3 129.4 L329.9 129.9 L332.5 130.6 L335.0 131.3 L337.5 132.2 L340.0 133.1 L342.4 134.1 L344.8 135.2 L347.1 136.3 L349.5 137.6 L351.7 139.0 L353.9 140.4 L356.1 141.9 L358.2 143.4 L360.3 145.1 L362.3 146.8 L364.2 148.6 L366.1 150.4 L367.9 152.3 L369.7 154.2 L371.4 156.2 L373.1 158.3 L374.6 160.4 L376.1 162.6 L377.6 164.8 L379.0 167.0 L380.3 169.3 L381.5 171.6 L382.7 174.0 L383.8 176.4 L384.8 178.8 L385.8 181.2 L386.7 183.7 L387.6 186.2 L388.3 188.7 L389.0 191.3 L389.6 193.8 L390.2 196.4 L390.6 199.0 L391.0 201.6 L391.4 204.2 L391.6 206.8 L391.8 209.4 L391.9 212.1 L392.0 214.7 L391.9 217.3 L391.8 220.0 L391.6 222.6 L391.4 225.2 L391.0 227.8 L390.6 230.4 L390.1 233.0 L389.5 235.6 L388.9 238.1 L388.1 240.7 L387.4 243.2 L386.4 245.6 L385.5 248.1 L384.4 250.5 L383.3 252.9 L382.1 255.2 L380.8 257.5 L379.5 259.8 L378.0 262.0 L376.5 264.1 L374.9 266.3 L373.2 268.3 L371.5 270.2 L369.7 272.2 L367.8 274.0 L365.8 275.7 L363.8 277.5 L361.7 279.0 L359.6 280.6 L357.4 282.0 L355.1 283.3 L352.8 284.6 L350.4 285.7 L348.0 286.8 L345.5 287.7 L343.1 288.6 L340.5 289.4 L338.0 290.0 L335.4 290.6 L332.8 291.1 L330.2 291.4 L327.6 291.7 L325.0 291.8 L322.3 291.9 L319.7 291.9 L317.1 291.8 L314.4 291.6 L311.8 291.3 L309.2 290.9 L306.6 290.5 L304.0 290.0 L301.5 289.3 L298.9 288.7 L296.4 287.9 L293.9 287.1 L291.4 286.2 L289.0 285.3 L286.5 284.3 L284.1 283.2 L281.7 282.1 L279.4 280.9 L277.0 279.7 L274.7 278.5 L272.4 277.2 L270.2 275.8 L267.9 274.4 L265.7 273.0 L263.5 271.5 L261.4 270.0 L259.2 268.5 L257.1 266.9 L255.0 265.3 L253.0 263.7 L250.9 262.0 L248.9 260.4 L246.9 258.7 L244.9 256.9 L242.9 255.2 L241.0 253.4 L239.0 251.6 L237.1 249.8 L235.2 248.0 L233.3 246.2 L231.5 244.3 L229.6 242.4 L227.8 240.6 L225.9 238.7 L224.1 236.8 L222.3 234.8 L220.5 232.9 L218.7 231.0 L216.9 229.0 L215.2 227.1 L213.4 225.1 L211.6 223.2 L209.9 221.2 L208.1 219.2 L206.4 217.3 L204.7 215.3 L202.9 213.3 L201.2 211.3 Z" fill="none" stroke="#15191E" stroke-width="9.6" stroke-linecap="round" stroke-linejoin="round" mask="url(#wfcut)"/><path d="M217.5 229.7 L216.9 229.0 L215.2 227.1 L213.4 225.1 L211.6 223.2 L209.9 221.2 L208.1 219.2 L206.4 217.3 L204.7 215.3 L202.9 213.3 L201.2 211.3 L199.8 209.1 L198.8 206.7 L197.9 204.2 L197.0 201.7 L196.1 199.2 L195.2 196.8 L194.3 194.3 L193.4 191.8 L192.5 189.3 L191.6 186.9 L190.9 185.1" fill="none" stroke="#15191E" stroke-width="9.6" stroke-linecap="round" stroke-linejoin="round"/><circle cx="200.2" cy="209.8" r="10.0" fill="#8E1C2B"/></g><path d="M372 286 L372 136 L464 286 L464 136" fill="none" stroke="#15191E" stroke-width="10" stroke-linecap="round" stroke-linejoin="round"/><path d="M494 136 L580 136 M537 136 L537 286" fill="none" stroke="#15191E" stroke-width="10" stroke-linecap="round" stroke-linejoin="round"/><path d="M616 136 L616 286" fill="none" stroke="#15191E" stroke-width="10" stroke-linecap="round" stroke-linejoin="round"/><path d="M652 286 L652 136 L744 286 L744 136" fill="none" stroke="#15191E" stroke-width="10" stroke-linecap="round" stroke-linejoin="round"/><path d="M774 136 L774 240 A46 46 0 0 0 866 240 L866 136" fill="none" stroke="#15191E" stroke-width="10" stroke-linecap="round" stroke-linejoin="round"/><path d="M896 136 L896 240 A46 46 0 0 0 988 240 L988 136" fill="none" stroke="#15191E" stroke-width="10" stroke-linecap="round" stroke-linejoin="round"/><path d="M1018 286 L1018 136 L1070 223 L1122 136 L1122 286" fill="none" stroke="#15191E" stroke-width="10" stroke-linecap="round" stroke-linejoin="round"/></svg>