<svg xmlns="http://www.w3.org/2000/svg" viewBox="0 0 2048 1575" width="650" height="500">
<!-- oudjat nettoye : contour seul. fill-rule evenodd. La pupille est EVIDEE (sous-chemin ellipse ajoute)
     -> le globe rouge se voit au travers. Pupille (constante d'enregistrement) : 737.5049 693.7131 -->
<path fill="#1F222A" fill-rule="evenodd" d="M792.694 902.525C801.944 900.231 811.639 899.173 821.22 897.465 844.258 893.355 867.699 890.8 890.732 886.637 918.202 881.526 945.528 875.667 972.679 869.067 1054.773 849.035 1127.72 818.979 1206 788.169 1222.97 781.489 1253.93 763.14 1267.26 760.446 1302.06 753.413 1339.89 756.95 1376.52 760.375 1392.64 761.882 1408.52 763.368 1423.82 763.922L1672.41 772.564C1725.94 774.804 1777.46 776.972 1830.81 783.123 1872.85 787.969 1915.59 790.328 1957.68 794.889 1965.77 795.64 1977.12 797.185 1984.97 799.029 1985.1 797.128 1985.32 794.461 1985.58 791.236 1987.36 769.411 1991.22 722.07 1984.12 714.358 1980.46 710.375 1970.01 710.609 1964.77 710.727L1964.39 710.736C1954.77 710.949 1945.19 711.353 1935.62 711.757L1935.6 711.758C1919.48 712.439 1903.37 713.119 1887.12 712.881 1799.8 711.604 1712.04 703.386 1624.9 697.699 1522.05 690.985 1429.2 691.703 1328.53 662.53 1304.64 655.606 1281.26 648.069 1259.1 636.587 1226.94 619.931 1197.66 598.142 1165.1 582.168 1042.483 522.005 845.91 471.061 710.824 474.108 670.027 474.59 611.139 476.092 572.153 486.177 514.675 501.045 440.804 517.915 399.105 563.024 377.333 586.577 358.926 610.114 339.91 635.733 313.391 671.47 287.369 705.742 258.468 739.759 226.844 777.959 185.628 808.627 156.8591 849.039 151.8641 856.055 147.4661 870.13 155.0941 875.82 169.894 886.229 194.574 884.707 215.05 883.444L215.053 883.444C219.922 883.144 224.554 882.858 228.758 882.751 238.598 882.501 248.531 882.039 258.51 881.576 297.501 879.763 337.189 877.919 374.714 888.536 378.012 889.469 381.065 890.462 383.874 891.557L792.694 902.525ZM1018.127 612.492C993.119 605.494 967.889 599.316 942.478 593.966 946.425 609.441 950.732 622.231 953.262 638.165 960.956 688.967 950.848 740.869 924.65 785.068 909.538 810.427 893.252 827.571 871.016 846.474 938.81 838.232 1008.751 825.306 1072.51 800.568 1122.69 780.144 1166.71 756.639 1200 712.665 1176.65 671.168 1126.26 652.439 1084.44 634.883 1063.04 625.902 1040.479 618.737 1018.127 612.492ZM612.003 856.432C562.375 822.23 528.698 773.86 517.195 714.146 512.513 688.885 512.091 663.018 515.947 637.617 516.233 635.791 517.285 630.999 518.486 625.534 520.637 615.747 523.262 603.8 522.805 602.857 442.527 641.524 414.262 680.823 361.121 750.132 340.864 776.554 313.401 799.989 294.888 829.103 315.707 836.97 341.129 837.439 363.402 839.913 378.752 841.617 395.398 843.7 410.694 845.055 453.59 849.307 496.583 852.504 539.635 854.642 555.579 855.395 585.011 855.541 604.141 856.801L612.003 856.432Z M563.7137 693.7131 a 173.7912 162.0288 0 1 0 347.5824 0 a 173.7912 162.0288 0 1 0 -347.5824 0 Z"/>
</svg>
